PathFileType	4	(X/Y/Z)	71_2_83_p0_0-305_filt_butterworth.trc
DataRate	CameraRate	NumFrames	NumMarkers	Units	OrigDataRate	OrigDataStartFrame	OrigNumFrames
42.0	42.0	7	27	m	42.0	190	305
Frame#	Time	RHip			RKnee			RAnkle			RBigToe			RSmallToe			RHeel			LHip			LKnee			LAnkle			LBigToe			LSmallToe			LHeel			Neck			Head			Nose			RShoulder			RElbow			RWrist			RThumb			RIndex			RPinky			LShoulder			LElbow			LWrist			LThumb			LIndex			LPinky			
		X1	Y1	Z1	X2	Y2	Z2	X3	Y3	Z3	X4	Y4	Z4	X5	Y5	Z5	X6	Y6	Z6	X7	Y7	Z7	X8	Y8	Z8	X9	Y9	Z9	X10	Y10	Z10	X11	Y11	Z11	X12	Y12	Z12	X13	Y13	Z13	X14	Y14	Z14	X15	Y15	Z15	X16	Y16	Z16	X17	Y17	Z17	X18	Y18	Z18	X19	Y19	Z19	X20	Y20	Z20	X21	Y21	Z21	X22	Y22	Z22	X23	Y23	Z23	X24	Y24	Z24	X25	Y25	Z25	X26	Y26	Z26	X27	Y27	Z27	
190	4.523809523809524	0.4019103364896433	0.6146639854704291	0.7392113574264457	0.394950059669604	0.22493782666064918	0.6263175188012144	0.40957629250431343	-0.1839036059922935	0.6190720334920834	0.4056377394461243	-0.1633781846999624	0.4496410385557339	0.46264526123322514	-0.15874448182001705	0.4649935485485367	0.4014397221971232	-0.2561746329095387	0.6847112044865818	0.20564808830408055	0.599289175177661	0.7473613973980984	0.19261157117011465	0.20814069716273906	0.6680369671852976	0.20528090926398296	-0.20192401812870728	0.6431679233537712	0.23266979122144754	-0.1522365522907319	0.45189593710106857	0.1785989231561651	-0.16582426348406648	0.4953958615586537	0.22051331782710615	-0.26185375260033816	0.6815581708136725	0.21090770919996404	1.092770656665578	0.6505795409127452	0.14383211701881493	1.3511083768139431	0.5499704422648839	0.1441655039743527	1.2090088529756589	0.5036138919739286	0.35769269211319166	1.061558672649654	0.5892128569699048	0.3001120300323874	0.8533389277245199	0.4643195379663163	0.13432638251427031	0.8797781041817547	0.3055359102117411	0.03886061251983881	0.9132804343458537	0.2670740072075785	0.0257951642541054	0.9292104030189402	0.23578294259283022	0.054968579500422055	0.8852162308986117	0.24681050295030185	0.0898532662847871	1.0149147938358265	0.7254344624771292	0.11137128497917724	0.7697019805478746	0.8490500576915732	0.15786524429875703	0.6825558743897282	0.679446660191303	0.1913750586314808	0.6828050810199953	0.5712689563670552	0.18632164725730044	0.6719891616549154	0.5547156094941387	0.18882299903535793	0.6614643767544813	0.5707630671134165	
191	4.547619047619048	0.4021608479164892	0.6160012547187067	0.7381803351358573	0.39334340341014973	0.22729561328789913	0.6226475880810123	0.40957153467167945	-0.18321767141528117	0.6182398421949862	0.40592243550603146	-0.16317102691634494	0.4482498309901095	0.46279416181076327	-0.1592034721574173	0.4648876031407565	0.40164187750690117	-0.2545438539313604	0.6846301097324337	0.2055791958244089	0.600625661147892	0.7469634322624817	0.19244805556799444	0.20659421362958016	0.6703497650893071	0.20542781789000067	-0.20096866466164326	0.643829595506131	0.23173212719873035	-0.15186433125468057	0.4511099028600176	0.17800375243991962	-0.16770342617669848	0.4979898977324651	0.2218502535567406	-0.2609360880714218	0.6827280957851916	0.20424662387777368	1.0922232480621044	0.642382957486036	0.13793978810950733	1.349720862435836	0.5435386660923359	0.1375350416880438	1.206638182337689	0.5042289797923042	0.35584859137922864	1.0604258608606336	0.5848848995340254	0.30917380972308606	0.8385417621620902	0.4809101448459491	0.13951209563814215	0.850932836857021	0.3290916272628473	0.039137313754239574	0.8739334688139576	0.2958723488402549	0.025593710523763184	0.8854765621917029	0.25794821578689214	0.055684819025221564	0.8417719170375683	0.26959306848507825	0.08613814080884957	1.0137518829051295	0.7289675208171251	0.11240420723342112	0.767732011914649	0.851793086159842	0.14984795459713612	0.6968967760594742	0.656814505557719	0.17503646312404353	0.6983906533585532	0.5347711076459161	0.16681912521604692	0.692239167451526	0.5075356420774908	0.17132308571624943	0.6760204992725274	0.5300836705274942	
192	4.571428571428571	0.40261592587192635	0.6170214511069689	0.7376646671533864	0.3917154337280799	0.22996003745942645	0.618281657527449	0.40938134789753705	-0.18217987632087718	0.6162803064590596	0.405941980880797	-0.16172695289285055	0.44498116986298597	0.4628112396941423	-0.16064325275831065	0.4649572783989868	0.4020607704235599	-0.25253753541153423	0.6832336042591596	0.20572708969156267	0.601817031846194	0.7464437392488217	0.1920566063222459	0.2050287486637148	0.6728187634746178	0.2053805286258124	-0.19995754340372487	0.6444436088047312	0.230553891924589	-0.1507550403349607	0.4485483145475084	0.17709431527168293	-0.1692894160991636	0.49965790531949783	0.22290061256191343	-0.2604119975272181	0.684002331365527	0.19816263515810562	1.091235639044525	0.6342567906010486	0.13251702234376833	1.3476138954342	0.5390516285094594	0.13246960364945268	1.2036568159735155	0.504530572689981	0.35460703821058226	1.0581150370712171	0.5832739961114644	0.32638279622396665	0.8200081949446415	0.5065529865463594	0.1545928200630869	0.8182520128820135	0.3601851305833279	0.05145901832137592	0.8305157176042981	0.33632223595510385	0.03831474446220841	0.8365269278279788	0.2909315044680983	0.06668349764280396	0.7919459003472572	0.30426239424894885	0.08196717979725655	1.0126485008941304	0.7324378476838742	0.11329193468935965	0.7673137706634211	0.8546983252868996	0.14020587275377958	0.7107691796286022	0.6336039153064702	0.1564213310490986	0.7162939750884699	0.4982927084003058	0.14666577388333746	0.7125244595358842	0.46430955354794773	0.15090543948398474	0.6875415983113004	0.49599502297800124	
193	4.595238095238095	0.40308691913914246	0.6180419223703719	0.7377083412449118	0.39015354848732997	0.23289753720870413	0.6137706689071751	0.40910240849028956	-0.18141628629561002	0.6145451102328089	0.4058563092477486	-0.159011300321515	0.4401253596644096	0.46261135223132305	-0.16239788402727304	0.46500268728316857	0.40278136487107996	-0.251177614810951	0.6816016499860177	0.20587680206320355	0.6023722734953079	0.746930901967432	0.19146271616245533	0.20360152900054448	0.6750476743527742	0.20510472004695274	-0.19929060153604353	0.6448590803503257	0.22926106220186654	-0.14935758257678644	0.44531708812105686	0.17617356983883908	-0.1710119348521221	0.5010985252382352	0.22335065230585868	-0.2608413329826671	0.6856793287679445	0.19285483588117394	1.0904193627943926	0.6267129592270975	0.12767776581316428	1.3453915485412908	0.5364433924746842	0.12851716498493115	1.201040455769073	0.50442335487012	0.3535367018964928	1.055116738636401	0.5837740654779056	0.346049037359334	0.8031521276294816	0.5324574731944266	0.17373465027703117	0.7864506186272503	0.3922789840198715	0.07001298993085357	0.7894830400073782	0.37764156918460523	0.05879616462753606	0.7901992663610925	0.32693241065231904	0.08418436564905171	0.7455434688888805	0.33981876114866266	0.07761907497145669	1.0115649150893946	0.7359070137246582	0.11454598865312121	0.7681797400620414	0.8597242135842081	0.1297219643183296	0.7246732122365006	0.6160996787878537	0.13672056400045052	0.7346617671173523	0.46921718331341483	0.12618092750865667	0.7331932172306878	0.4303261857869321	0.12835437072568945	0.6991959849044429	0.4727340207604243	
194	4.619047619047619	0.4035067641103281	0.6187469464286308	0.7380475108333622	0.3887537569379157	0.23594293889884763	0.6096841843301348	0.4087672057235715	-0.18094950197202658	0.613279745671726	0.4057417880212022	-0.15671548228852006	0.4361125670736302	0.46209099710497825	-0.16424715711075066	0.4649245620119936	0.40342041948462004	-0.25053001317493195	0.6799637888210798	0.2058756290182055	0.602200881560544	0.7483040596733906	0.19080204113787574	0.20268606843052517	0.6766411737068371	0.20459444986253272	-0.19910720465401419	0.645034731727917	0.22812537944175265	-0.14848975245795545	0.4428614461238585	0.175650490022501	-0.17275601901952164	0.5019022937674366	0.22299488541666637	-0.2619398958369461	0.6875528758179978	0.18877268112475573	1.0896003870134336	0.6204548115597216	0.12424668172099956	1.343803962939292	0.5350443974714598	0.12561602512700926	1.199005007586504	0.5038210524510025	0.3529872564930746	1.0516686861571605	0.5860050638960355	0.36542958853106033	0.7905602249467094	0.5564092768323048	0.1939723970917032	0.7581256727180598	0.4212137860912787	0.09151957850712586	0.7546878711352208	0.41174556843173826	0.08236069553931216	0.7492287295955777	0.36122687045644347	0.10558199320706646	0.7067244771454124	0.370423542983799	0.07400945655897175	1.0106090467824769	0.7386231319224825	0.11552105407397284	0.7697171944929218	0.8643414729386614	0.11834276690494018	0.7407760489909339	0.6035599321096906	0.1177321430796813	0.755437933783076	0.44846339757916553	0.10639789701313446	0.7577787485622566	0.40493431353102616	0.10525831872159237	0.7127463617462556	0.46042301132698066	
195	4.642857142857143	0.40397607646564593	0.6188239175005038	0.7386178938489709	0.3877594540797091	0.23890279711903334	0.6061568444919025	0.408335919308193	-0.1804498903415636	0.6120182605911818	0.4056135024288049	-0.15640431847955358	0.4350238854844999	0.461361304781556	-0.1661102547949366	0.4646771304354589	0.40332268087310724	-0.2500737679690308	0.6780285031315567	0.2057724281451339	0.6016053099553642	0.7496176348397124	0.19028848982758229	0.20247145919235207	0.6773566370670416	0.20395455914978214	-0.19922302009789325	0.6450488270116728	0.22750793456494114	-0.14856141460904015	0.44177048918645473	0.17563393329204335	-0.17400528103949403	0.5015098897530507	0.22182411190463086	-0.2631167035867226	0.6890831653722542	0.1867417080175422	1.0882436494887064	0.6164111180605397	0.12310104537796537	1.3429468491776095	0.53475614281804	0.12405775718099743	1.1973113113170764	0.503052723055483	0.3532942293197524	1.0483369041094712	0.5902103742086069	0.38346087048440114	0.7827914437878914	0.5800697312274653	0.21393103853804546	0.7367020507533997	0.4442191576343679	0.11382138010187814	0.7291196524964648	0.4331275504724927	0.10485936145532673	0.7157715322590936	0.3896164703755346	0.1282923373148741	0.6775362133159749	0.3943869474734252	0.07193529582416394	1.0098725932790693	0.7398248221346784	0.11458807982253183	0.7723405037621901	0.8617423754689754	0.10610259026928881	0.7587701276626202	0.5938675838561629	0.10224990101511638	0.7791908369146873	0.4367618935404639	0.09006076261569976	0.785696269156761	0.390821562565035	0.08510611846944122	0.7278183311083479	0.45854014402508214	
196	4.666666666666667	0.40444231000205777	0.6182039196940672	0.7394716970641899	0.3872857040982702	0.24129051712999383	0.6031879745703344	0.407771545732566	-0.1798988173224674	0.6105384512678537	0.40556828166653464	-0.1576282888181371	0.4361559764536472	0.4608985075602321	-0.16776637140692652	0.4642332766086269	0.4022694372702498	-0.24932190384853398	0.6755741246101916	0.20580868740619132	0.600755568589262	0.7503075059775544	0.1901591362883172	0.2023219789991941	0.6771857027331669	0.20330784600255994	-0.1996106807397169	0.6449160732742928	0.2278207968964569	-0.14946874514029013	0.44199575457228546	0.17593855766604716	-0.1745185951539264	0.500338173645183	0.2200595365469062	-0.2642768379808673	0.6900926927831503	0.187178259501589	1.0863004701269778	0.6157113404375423	0.12438851267794776	1.3426374442785682	0.5353932460693122	0.12412276405340969	1.1960244907981663	0.5025068601457252	0.3545055104387266	1.046212304822917	0.5959818875976222	0.39895653373247975	0.7798403145800448	0.6027115885037222	0.23177971715819687	0.7261649210272495	0.4596451327521617	0.13372014086597916	0.715360900711161	0.440120767928589	0.12350098090847492	0.6935277149609623	0.4087760348435602	0.14961590502409983	0.6591507206280609	0.41237201998290685	0.07133259474865067	1.0093402542434076	0.7398527410549913	0.11074971383588353	0.7766657820935607	0.848327256794142	0.0945513626120767	0.7764668910480581	0.5851746019975327	0.0926749472493057	0.8033965267296641	0.4342670083896746	0.07949460289870948	0.8120506250886841	0.38939515181559287	0.07128825100965545	0.7436320086576684	0.4629914323404265	
